<?xml version="1.0" encoding="utf-8"?>
<!-- Generator: Adobe Illustrator 21.0.0, SVG Export Plug-In . SVG Version: 6.00 Build 0)  -->
<svg version="1.1" id="Layer_1" xmlns="http://www.w3.org/2000/svg" xmlns:xlink="http://www.w3.org/1999/xlink" x="0px" y="0px"
	 viewBox="0 0 284 182" style="enable-background:new 0 0 284 182;" xml:space="preserve">
<style type="text/css">
	.st0{fill:none;stroke:#B8DEE8;stroke-width:16;stroke-linecap:round;stroke-linejoin:round;stroke-miterlimit:10;}
	.st1{fill:#010101;}
	.st2{fill:none;stroke:#99C93C;stroke-width:16;stroke-linecap:round;stroke-linejoin:round;stroke-miterlimit:10;}
</style>
<path class="st0" d="M231.2,130v-58v0.3c0-11.1,9-20.1,20.1-20.1s20.1,9,20.1,20.1s-9,20.1-20.1,20.1l20.1,37.5"/>
<path class="st0" d="M168,130l20.1-37.5c-11.1,0-20.1-9-20.1-20.1s9-20.1,20.1-20.1s20.1,9,20.1,20.1v-0.3v58"/>
<path class="st1" d="M5.5,7.2v-2h10.8v2h-4.3v15.3H9.8V7.2H5.5z"/>
<path class="st1" d="M20,22.5l7.2-17.3h1.8l7.2,17.3l-2.2,0l-2-4.8h-7.8l-2,4.8L20,22.5z M25,15.9h6.3l-2.6-6.7
	c-0.3-0.6-0.4-1.2-0.5-1.8C28.1,7.9,28,8.2,28,8.4c0,0.2-0.1,0.4-0.3,0.9L25,15.9z"/>
<path class="st1" d="M41.8,22.5V5.2h2.1v15.5h5.6v1.8H41.8z"/>
<path class="st1" d="M55.6,22.5V5.2h2.1v17.3H55.6z M57.8,13.5l6.8-8.2l2.7,0l-6.9,8.3l7.6,9l-2.6,0L57.8,13.5z"/>
<path class="st1" d="M73.2,22.5V5.2h2.1v17.3H73.2z"/>
<path class="st1" d="M82.9,22.5V5.2l1.7,0L95.2,18c0.3,0.4,0.5,0.7,0.7,0.9c0.2,0.2,0.3,0.5,0.4,0.9l-0.1-0.5
	c-0.1-0.4-0.1-0.8-0.2-1.1c0-0.3,0-0.5,0-0.7V5.2h2.1v17.3l-1.7,0L85.7,9.8c-0.5-0.6-0.9-1.2-1.1-1.7l0.1,0.4c0.1,0.4,0.1,0.8,0.2,1
	c0,0.3,0,0.5,0,0.6v12.4H82.9z"/>
<path class="st1" d="M121.4,8.5l-1.6,1.4c0-0.1-0.1-0.2-0.3-0.3c-0.1-0.2-0.4-0.5-0.8-0.9c-0.4-0.4-1.1-0.9-2-1.3
	c-0.9-0.4-1.8-0.6-2.8-0.6c-1.1,0-2.2,0.3-3.2,0.8s-1.8,1.2-2.2,1.9c-0.5,0.7-0.8,1.3-0.9,1.6c-0.2,0.4-0.3,0.8-0.3,1.1
	c-0.1,0.3-0.1,0.6-0.1,0.9c0,0.2,0,0.5,0,0.7c0,1,0.2,2,0.5,2.8c0.4,0.9,0.9,1.7,1.8,2.5c0.8,0.8,1.7,1.3,2.6,1.4
	c0.9,0.1,1.6,0.2,2,0.2c1.5,0,2.8-0.4,3.9-1.3s1.7-2,2-3.5l0.1-0.6h-6.2v-1.8h8.5v1.4c0,2.3-0.8,4.2-2.4,5.7
	c-1.6,1.4-3.5,2.1-5.9,2.1c-0.6,0-1.5-0.1-2.9-0.3c-1.4-0.2-2.7-1.1-4.1-2.7c-1.4-1.6-2-3.5-2-5.7c0-0.4,0-0.7,0-0.9
	c0-0.2,0.1-0.7,0.2-1.5c0.1-0.8,0.5-1.7,1.2-2.7s1.5-1.9,2.4-2.5c1-0.7,1.9-1.1,2.9-1.3c1-0.2,1.8-0.3,2.4-0.3
	c2.4,0,4.5,0.9,6.3,2.7L121.4,8.5z"/>
<path class="st1" d="M139.3,7.2v-2h10.8v2h-4.3v15.3h-2.1V7.2H139.3z"/>
<path class="st1" d="M155.9,22.5V5.2h2.1v6.9h8.6V5.2h2.1v17.3h-2.1V14H158v8.6H155.9z"/>
<path class="st1" d="M176.3,22.5V5.2h8.8v1.8h-6.8v5.1h5.8V14h-5.8v6.7h7.1v1.8H176.3z"/>
<path class="st1" d="M192.4,22.5V5.2h3.8c1.6,0,2.9,0.3,3.8,1c0.9,0.6,1.5,1.3,1.6,2c0.1,0.7,0.2,1.2,0.2,1.3c0,0.2,0,0.4,0,0.7
	c0,1.2-0.3,2.1-1,2.9c-0.6,0.8-1.6,1.3-2.8,1.6l-0.5,0.1l5.2,7.7l-2.5,0l-6-9v9H192.4z M194.5,13.5h1.6c1,0,1.8-0.2,2.4-0.6
	c0.6-0.4,1-0.9,1.1-1.3c0.1-0.5,0.2-0.8,0.2-1c0-0.2,0-0.4,0-0.4c0-0.9-0.3-1.6-0.9-2.2c-0.3-0.3-0.7-0.5-1.1-0.7
	c-0.4-0.1-1-0.2-1.6-0.2h-1.7V13.5z"/>
<path class="st1" d="M206.7,22.5l7.2-17.3h1.8l7.2,17.3l-2.2,0l-2-4.8H211l-2,4.8L206.7,22.5z M211.7,15.9h6.3l-2.6-6.7
	c-0.3-0.6-0.4-1.2-0.5-1.8c-0.1,0.5-0.1,0.8-0.2,0.9c0,0.2-0.1,0.4-0.3,0.9L211.7,15.9z"/>
<path class="st1" d="M228.4,22.5V5.2h3.9c1.7,0,3.1,0.4,4.1,1.3c1,0.8,1.5,2,1.5,3.4c0,0.4-0.1,0.9-0.2,1.7
	c-0.1,0.8-0.6,1.5-1.5,2.2c-0.9,0.7-2,1-3.3,1h-2.5v7.7H228.4z M230.5,13h1.8c1.1,0,1.9-0.3,2.5-0.8c0.6-0.5,0.9-1.3,0.9-2.2
	c0-0.9-0.3-1.6-0.9-2.1c-0.6-0.5-1.4-0.8-2.6-0.8h-1.8V13z"/>
<path class="st1" d="M244.3,22.5V5.2h2.1v17.3H244.3z"/>
<path class="st1" d="M253.9,22.5V5.2h8.8v1.8H256v5.1h5.8V14H256v6.7h7.1v1.8H253.9z"/>
<path class="st1" d="M268.5,19.3l1.7-1.1l0.3,0.5c0.4,0.6,0.8,1,1.2,1.3c0.4,0.3,0.9,0.6,1.4,0.7l0.7,0.2c0.1,0,0.2,0,0.3,0
	c0.1,0,0.2,0,0.3,0c0.7,0,1.4-0.2,1.9-0.5c0.5-0.3,0.9-0.7,1.2-1.2c0.2-0.5,0.4-1,0.4-1.5c0-0.8-0.3-1.4-0.9-1.9
	c-0.2-0.1-0.4-0.3-0.7-0.4c-0.2-0.1-0.8-0.4-1.5-0.7l-0.6-0.3l-1.7-0.7c-0.9-0.4-1.6-1-2.1-1.7c-0.5-0.7-0.7-1.5-0.7-2.4
	c0-1.3,0.4-2.2,1.1-2.9c0.7-0.7,1.4-1.2,1.9-1.4c0.6-0.2,1.2-0.3,2-0.3c0.3,0,0.8,0,1.5,0.1c0.7,0.1,1.3,0.4,1.9,1
	c0.6,0.6,1,1,1.2,1.4l0.3,0.5l-1.8,0.9l-0.2-0.3c-0.5-0.9-1.3-1.5-2.4-1.7c-0.3,0-0.5,0-0.6,0c-0.6,0-1.1,0.1-1.6,0.4
	s-0.7,0.6-0.9,1c-0.2,0.4-0.3,0.8-0.3,1.3c0,0.6,0.2,1.1,0.5,1.5c0.3,0.3,0.7,0.6,1.1,0.8c0.4,0.2,1,0.5,1.8,0.8l0.6,0.2
	c2.8,1.2,4.3,2.9,4.3,4.9c0,0.9-0.3,1.8-0.9,2.7c-0.6,0.9-1.3,1.5-2.1,1.9c-0.8,0.4-1.7,0.6-2.8,0.6c-0.2,0-0.4,0-0.5,0
	c-0.2,0-0.7-0.1-1.7-0.2c-1-0.1-2-1-3.1-2.8L268.5,19.3z"/>
<path class="st1" d="M5.4,160.1h6.4c0.4,0,0.9,0,1.3,0c0.4,0,1,0.1,1.7,0.3c0.7,0.2,1.5,0.7,2.1,1.6c0.7,0.9,1,2,1,3.3
	c0,2.6-1.2,4.2-3.6,4.8l4.7,7.4h-5.1l-4.1-7.2v7.2H5.4V160.1z M9.8,168h1.1c0.8,0,1.4-0.2,1.9-0.6c0.4-0.4,0.7-0.9,0.7-1.7
	c0-1.4-0.8-2.1-2.4-2.1H9.8V168z"/>
<path class="st1" d="M23,160.1h10.2v3.5h-5.8v3.1h5v3.5h-5v3.7h6v3.5H23V160.1z"/>
<path class="st1" d="M38,171.8c1.4,1.7,2.9,2.5,4.3,2.5c0.6,0,1.2-0.2,1.6-0.5c0.4-0.3,0.6-0.8,0.6-1.3c0-0.4-0.2-0.8-0.6-1.1
	c-0.3-0.2-1-0.5-2-0.8c-1-0.3-1.7-0.6-2.1-0.8c-0.4-0.2-1-0.6-1.7-1.2c-0.7-0.6-1.1-1.7-1.1-3.1c0-1.6,0.6-3,1.8-4
	c1.2-1.1,2.7-1.6,4.6-1.6c1,0,1.9,0.2,2.8,0.5c0.8,0.3,1.6,0.8,2.4,1.5l-1.8,3.2c-1.2-1.1-2.3-1.6-3.3-1.6c-0.5,0-1,0.1-1.3,0.4
	c-0.3,0.3-0.5,0.6-0.5,1.1c0,0.4,0.1,0.7,0.4,0.9c0.2,0.2,0.5,0.4,0.7,0.5s0.9,0.3,1.9,0.7c1,0.3,1.9,0.8,2.6,1.3
	c1.1,0.9,1.6,2.1,1.6,3.7c0,1.8-0.6,3.2-1.8,4.3c-1.2,1.1-2.8,1.7-4.7,1.7c-2.4,0-4.4-0.9-6.1-2.6L38,171.8z"/>
<path class="st1" d="M52.8,160.1H63v3.5h-5.8v3.1h5v3.5h-5v3.7h6v3.5H52.8V160.1z"/>
<path class="st1" d="M71.7,160.1h4.6l6.1,17.3h-4.6l-1-3.2h-5.7l-1,3.2h-4.5L71.7,160.1z M72.1,171h3.7l-1.4-4.4l-0.2-0.9
	c-0.1-0.4-0.1-0.8-0.2-1.2c0-0.4-0.1-0.9-0.1-1.4c0,0.6,0,1.1,0,1.4c0,0.4-0.1,0.7-0.2,1.2l-0.2,0.9L72.1,171z"/>
<path class="st1" d="M85.1,160.1h6.4c0.4,0,0.9,0,1.3,0c0.4,0,1,0.1,1.7,0.3c0.7,0.2,1.5,0.7,2.1,1.6c0.7,0.9,1,2,1,3.3
	c0,2.6-1.2,4.2-3.6,4.8l4.7,7.4h-5.1l-4.1-7.2v7.2h-4.4V160.1z M89.5,168h1.1c0.8,0,1.4-0.2,1.9-0.6c0.4-0.4,0.7-0.9,0.7-1.7
	c0-1.4-0.8-2.1-2.4-2.1h-1.2V168z"/>
<path class="st1" d="M113.9,165.2c-0.6-0.4-1.1-0.7-1.6-0.9c-0.5-0.2-1.1-0.3-1.7-0.3c-1.4,0-2.5,0.5-3.4,1.4
	c-0.9,0.9-1.4,2.1-1.4,3.4c0,1.4,0.5,2.5,1.4,3.5c0.9,0.9,2,1.4,3.4,1.4c0.7,0,1.3-0.1,1.8-0.3c0.5-0.2,1-0.5,1.5-0.9l2.1,3.2
	c-0.4,0.3-0.7,0.5-1,0.8c-0.3,0.2-0.9,0.5-1.7,0.9s-1.9,0.5-3.3,0.5c-2.5,0-4.6-0.8-6.2-2.5c-1.6-1.7-2.5-3.8-2.5-6.4
	c0-2.6,0.8-4.8,2.5-6.5c1.7-1.7,3.8-2.6,6.3-2.6c1.2,0,2.3,0.1,3,0.4c0.8,0.3,1.3,0.6,1.7,0.8c0.4,0.2,0.8,0.5,1.4,1L113.9,165.2z"
	/>
<path class="st1" d="M119.6,160.1h4.4v6.1h5.5v-6.1h4.4v17.3h-4.4v-7.3H124v7.3h-4.4V160.1z"/>
<path class="st1" d="M148.6,160.1h6.4c0.4,0,0.9,0,1.3,0c0.4,0,1,0.1,1.7,0.3c0.7,0.2,1.5,0.7,2.1,1.6c0.7,0.9,1,2,1,3.3
	c0,2.6-1.2,4.2-3.6,4.8l4.7,7.4h-5.1l-4.1-7.2v7.2h-4.4V160.1z M153,168h1.1c0.8,0,1.4-0.2,1.9-0.6c0.4-0.4,0.7-0.9,0.7-1.7
	c0-1.4-0.8-2.1-2.4-2.1H153V168z"/>
<path class="st1" d="M165.2,160.1h10.2v3.5h-5.8v3.1h5v3.5h-5v3.7h6v3.5h-10.4V160.1z"/>
<path class="st1" d="M180.2,171.8c1.4,1.7,2.9,2.5,4.3,2.5c0.6,0,1.2-0.2,1.6-0.5c0.4-0.3,0.6-0.8,0.6-1.3c0-0.4-0.2-0.8-0.6-1.1
	c-0.3-0.2-1-0.5-2-0.8c-1-0.3-1.7-0.6-2.1-0.8c-0.4-0.2-1-0.6-1.7-1.2c-0.7-0.6-1.1-1.7-1.1-3.1c0-1.6,0.6-3,1.8-4s2.7-1.6,4.6-1.6
	c1,0,1.9,0.2,2.8,0.5c0.8,0.3,1.6,0.8,2.4,1.5l-1.8,3.2c-1.2-1.1-2.3-1.6-3.3-1.6c-0.5,0-1,0.1-1.3,0.4c-0.3,0.3-0.5,0.6-0.5,1.1
	c0,0.4,0.1,0.7,0.4,0.9c0.2,0.2,0.5,0.4,0.7,0.5s0.9,0.3,1.9,0.7c1,0.3,1.9,0.8,2.6,1.3c1.1,0.9,1.6,2.1,1.6,3.7
	c0,1.8-0.6,3.2-1.8,4.3s-2.8,1.7-4.7,1.7c-2.4,0-4.4-0.9-6.1-2.6L180.2,171.8z"/>
<path class="st1" d="M203.5,159.8c2.5,0,4.7,0.9,6.3,2.6c1.7,1.7,2.5,3.9,2.5,6.5c0,2.6-0.8,4.7-2.5,6.5c-1.7,1.7-3.8,2.6-6.3,2.6
	c-2.6,0-4.7-0.8-6.4-2.5c-1.7-1.7-2.5-3.9-2.5-6.5c0-2.6,0.8-4.7,2.5-6.5C198.8,160.6,201,159.8,203.5,159.8z M199.1,168.8
	c0,1.3,0.4,2.5,1.3,3.4c0.8,0.9,1.9,1.4,3.1,1.4c1.2,0,2.2-0.5,3.1-1.4c0.8-0.9,1.3-2.1,1.3-3.4c0-1.3-0.4-2.4-1.3-3.4
	c-0.8-0.9-1.9-1.4-3.1-1.4c-1.2,0-2.3,0.5-3.1,1.4C199.5,166.3,199.1,167.5,199.1,168.8z"/>
<path class="st1" d="M230.2,170.5c0,1.2-0.1,2.3-0.3,3.3s-0.9,2-2.1,2.8c-1.2,0.8-2.7,1.2-4.5,1.2c-1.2,0-2.2-0.2-3.1-0.5
	c-0.9-0.3-1.7-0.8-2.3-1.5c-0.6-0.7-1-1.4-1.2-2.1c-0.2-0.7-0.3-1.8-0.3-3.3v-10.3h4.4v10c0,0.3,0,0.6,0,0.8c0,0.3,0,0.6,0.1,1
	c0,0.4,0.3,0.8,0.8,1.2c0.5,0.4,1,0.5,1.7,0.5c0.9,0,1.5-0.2,1.8-0.6c0.3-0.4,0.6-0.8,0.6-1.2c0.1-0.4,0.1-0.9,0.1-1.8v-10h4.4
	V170.5z"/>
<path class="st1" d="M234.5,160.1h6.4c0.4,0,0.9,0,1.3,0c0.4,0,1,0.1,1.7,0.3c0.7,0.2,1.5,0.7,2.1,1.6c0.7,0.9,1,2,1,3.3
	c0,2.6-1.2,4.2-3.6,4.8l4.7,7.4h-5.1l-4.1-7.2v7.2h-4.4V160.1z M238.9,168h1.1c0.8,0,1.4-0.2,1.9-0.6c0.4-0.4,0.7-0.9,0.7-1.7
	c0-1.4-0.8-2.1-2.4-2.1h-1.2V168z"/>
<path class="st1" d="M263.3,165.2c-0.6-0.4-1.1-0.7-1.6-0.9c-0.5-0.2-1.1-0.3-1.7-0.3c-1.4,0-2.5,0.5-3.4,1.4
	c-0.9,0.9-1.4,2.1-1.4,3.4c0,1.4,0.5,2.5,1.4,3.5c0.9,0.9,2,1.4,3.4,1.4c0.7,0,1.3-0.1,1.8-0.3c0.5-0.2,1-0.5,1.5-0.9l2.1,3.2
	c-0.4,0.3-0.7,0.5-1,0.8c-0.3,0.2-0.9,0.5-1.7,0.9c-0.8,0.4-1.9,0.5-3.3,0.5c-2.5,0-4.6-0.8-6.2-2.5c-1.6-1.7-2.5-3.8-2.5-6.4
	c0-2.6,0.8-4.8,2.5-6.5c1.7-1.7,3.8-2.6,6.3-2.6c1.2,0,2.3,0.1,3,0.4c0.8,0.3,1.3,0.6,1.7,0.8c0.4,0.2,0.8,0.5,1.4,1L263.3,165.2z"
	/>
<path class="st1" d="M269,160.1h10.2v3.5h-5.8v3.1h5v3.5h-5v3.7h6v3.5H269V160.1z"/>
<g>
	<g>
		<line class="st2" x1="13" y1="52.1" x2="67" y2="52.1"/>
		<line class="st2" x1="40" y1="53.1" x2="40" y2="130.1"/>
	</g>
	<g>
		<line class="st2" x1="90" y1="52.1" x2="144" y2="52.1"/>
		<line class="st2" x1="117" y1="53.1" x2="117" y2="130.1"/>
	</g>
</g>
</svg>
